G04 #@! TF.GenerationSoftware,KiCad,Pcbnew,10.0.5*
G04 #@! TF.CreationDate,2026-08-26T03:10:51+01:00*
G04 #@! TF.ProjectId,pico-ipod,7069636f-2d69-4706-9f64-2e6b69636164,rev?*
G04 #@! TF.SameCoordinates,Original*
G04 #@! TF.FileFunction,Soldermask,Top*
G04 #@! TF.FilePolarity,Negative*
%FSLAX46Y46*%
G04 Gerber Fmt 4.6, Leading zero omitted, Abs format (unit mm)*
G04 Created by KiCad (PCBNEW 10.0.5) date 2026-08-26 03:10:51*
%MOMM*%
%LPD*%
G01*
G04 APERTURE LIST*
G04 Aperture macros list*
%AMRoundRect*
0 Rectangle with rounded corners*
0 $1 Rounding radius*
0 $2 $3 $4 $5 $6 $7 $8 $9 X,Y pos of 4 corners*
0 Add a 4 corners polygon primitive as box body*
4,1,4,$2,$3,$4,$5,$6,$7,$8,$9,$2,$3,0*
0 Add four circle primitives for the rounded corners*
1,1,$1+$1,$2,$3*
1,1,$1+$1,$4,$5*
1,1,$1+$1,$6,$7*
1,1,$1+$1,$8,$9*
0 Add four rect primitives between the rounded corners*
20,1,$1+$1,$2,$3,$4,$5,0*
20,1,$1+$1,$4,$5,$6,$7,0*
20,1,$1+$1,$6,$7,$8,$9,0*
20,1,$1+$1,$8,$9,$2,$3,0*%
%AMFreePoly0*
4,1,37,0.800000,0.796148,0.878414,0.796148,1.032228,0.765552,1.177117,0.705537,1.307515,0.618408,1.418408,0.507515,1.505537,0.377117,1.565552,0.232228,1.596148,0.078414,1.596148,-0.078414,1.565552,-0.232228,1.505537,-0.377117,1.418408,-0.507515,1.307515,-0.618408,1.177117,-0.705537,1.032228,-0.765552,0.878414,-0.796148,0.800000,-0.796148,0.800000,-0.800000,-1.400000,-0.800000,
-1.403843,-0.796157,-1.439018,-0.796157,-1.511114,-0.766294,-1.566294,-0.711114,-1.596157,-0.639018,-1.596157,-0.603843,-1.600000,-0.600000,-1.600000,0.600000,-1.596157,0.603843,-1.596157,0.639018,-1.566294,0.711114,-1.511114,0.766294,-1.439018,0.796157,-1.403843,0.796157,-1.400000,0.800000,0.800000,0.800000,0.800000,0.796148,0.800000,0.796148,$1*%
%AMFreePoly1*
4,1,37,1.403843,0.796157,1.439018,0.796157,1.511114,0.766294,1.566294,0.711114,1.596157,0.639018,1.596157,0.603843,1.600000,0.600000,1.600000,-0.600000,1.596157,-0.603843,1.596157,-0.639018,1.566294,-0.711114,1.511114,-0.766294,1.439018,-0.796157,1.403843,-0.796157,1.400000,-0.800000,-0.800000,-0.800000,-0.800000,-0.796148,-0.878414,-0.796148,-1.032228,-0.765552,-1.177117,-0.705537,
-1.307515,-0.618408,-1.418408,-0.507515,-1.505537,-0.377117,-1.565552,-0.232228,-1.596148,-0.078414,-1.596148,0.078414,-1.565552,0.232228,-1.505537,0.377117,-1.418408,0.507515,-1.307515,0.618408,-1.177117,0.705537,-1.032228,0.765552,-0.878414,0.796148,-0.800000,0.796148,-0.800000,0.800000,1.400000,0.800000,1.403843,0.796157,1.403843,0.796157,$1*%
%AMFreePoly2*
4,1,37,0.603843,0.796157,0.639018,0.796157,0.711114,0.766294,0.766294,0.711114,0.796157,0.639018,0.796157,0.603843,0.800000,0.600000,0.800000,-0.600000,0.796157,-0.603843,0.796157,-0.639018,0.766294,-0.711114,0.711114,-0.766294,0.639018,-0.796157,0.603843,-0.796157,0.600000,-0.800000,0.000000,-0.800000,0.000000,-0.796148,-0.078414,-0.796148,-0.232228,-0.765552,-0.377117,-0.705537,
-0.507515,-0.618408,-0.618408,-0.507515,-0.705537,-0.377117,-0.765552,-0.232228,-0.796148,-0.078414,-0.796148,0.078414,-0.765552,0.232228,-0.705537,0.377117,-0.618408,0.507515,-0.507515,0.618408,-0.377117,0.705537,-0.232228,0.765552,-0.078414,0.796148,0.000000,0.796148,0.000000,0.800000,0.600000,0.800000,0.603843,0.796157,0.603843,0.796157,$1*%
%AMFreePoly3*
4,1,37,0.000000,0.796148,0.078414,0.796148,0.232228,0.765552,0.377117,0.705537,0.507515,0.618408,0.618408,0.507515,0.705537,0.377117,0.765552,0.232228,0.796148,0.078414,0.796148,-0.078414,0.765552,-0.232228,0.705537,-0.377117,0.618408,-0.507515,0.507515,-0.618408,0.377117,-0.705537,0.232228,-0.765552,0.078414,-0.796148,0.000000,-0.796148,0.000000,-0.800000,-0.600000,-0.800000,
-0.603843,-0.796157,-0.639018,-0.796157,-0.711114,-0.766294,-0.766294,-0.711114,-0.796157,-0.639018,-0.796157,-0.603843,-0.800000,-0.600000,-0.800000,0.600000,-0.796157,0.603843,-0.796157,0.639018,-0.766294,0.711114,-0.711114,0.766294,-0.639018,0.796157,-0.603843,0.796157,-0.600000,0.800000,0.000000,0.800000,0.000000,0.796148,0.000000,0.796148,$1*%
G04 Aperture macros list end*
%ADD10C,2.200000*%
%ADD11C,1.850000*%
%ADD12FreePoly0,90.000000*%
%ADD13RoundRect,0.200000X0.600000X-0.600000X0.600000X0.600000X-0.600000X0.600000X-0.600000X-0.600000X0*%
%ADD14RoundRect,0.800000X0.000010X-0.800000X0.000010X0.800000X-0.000010X0.800000X-0.000010X-0.800000X0*%
%ADD15C,1.600000*%
%ADD16FreePoly1,90.000000*%
%ADD17FreePoly2,90.000000*%
%ADD18FreePoly3,90.000000*%
%ADD19RoundRect,0.250000X-0.262500X-0.450000X0.262500X-0.450000X0.262500X0.450000X-0.262500X0.450000X0*%
%ADD20RoundRect,0.250000X-0.250000X-0.475000X0.250000X-0.475000X0.250000X0.475000X-0.250000X0.475000X0*%
%ADD21R,1.700000X1.700000*%
%ADD22C,1.700000*%
%ADD23O,2.200000X3.500000*%
%ADD24R,1.500000X2.500000*%
%ADD25O,1.500000X2.500000*%
%ADD26RoundRect,0.250000X-0.525000X-0.400000X0.525000X-0.400000X0.525000X0.400000X-0.525000X0.400000X0*%
%ADD27R,2.800000X2.200000*%
%ADD28R,2.800000X2.800000*%
%ADD29RoundRect,0.250000X-0.350000X-0.625000X0.350000X-0.625000X0.350000X0.625000X-0.350000X0.625000X0*%
%ADD30O,1.200000X1.750000*%
%ADD31R,2.000000X2.000000*%
%ADD32C,2.000000*%
%ADD33R,3.200000X2.000000*%
%ADD34R,1.200000X0.700000*%
%ADD35R,0.800000X1.000000*%
%ADD36R,1.200000X1.000000*%
%ADD37R,2.800000X1.000000*%
%ADD38R,1.900000X1.300000*%
G04 APERTURE END LIST*
D10*
X56000000Y-86415000D03*
D11*
X59030000Y-86115000D03*
X59030000Y-81265000D03*
D10*
X56000000Y-80965000D03*
D12*
X55870000Y-93380000D03*
D13*
X55870000Y-92580000D03*
D14*
X58410000Y-93380000D03*
D15*
X58410000Y-92580000D03*
D16*
X60950000Y-93380000D03*
D17*
X60950000Y-92580000D03*
D14*
X63490000Y-93380000D03*
D15*
X63490000Y-92580000D03*
D14*
X66030000Y-93380000D03*
D15*
X66030000Y-92580000D03*
D14*
X68570000Y-93380000D03*
D15*
X68570000Y-92580000D03*
D14*
X71110000Y-93380000D03*
D15*
X71110000Y-92580000D03*
D16*
X73650000Y-93380000D03*
D17*
X73650000Y-92580000D03*
D14*
X76190000Y-93380000D03*
D15*
X76190000Y-92580000D03*
D14*
X78730000Y-93380000D03*
D15*
X78730000Y-92580000D03*
D14*
X81270000Y-93380000D03*
D15*
X81270000Y-92580000D03*
D14*
X83810000Y-93380000D03*
D15*
X83810000Y-92580000D03*
D16*
X86350000Y-93380000D03*
D17*
X86350000Y-92580000D03*
D14*
X88890000Y-93380000D03*
D15*
X88890000Y-92580000D03*
D14*
X91430000Y-93380000D03*
D15*
X91430000Y-92580000D03*
D14*
X93970000Y-93380000D03*
D15*
X93970000Y-92580000D03*
D14*
X96510000Y-93380000D03*
D15*
X96510000Y-92580000D03*
D16*
X99050000Y-93380000D03*
D17*
X99050000Y-92580000D03*
D14*
X101590000Y-93380000D03*
D15*
X101590000Y-92580000D03*
D14*
X104130000Y-93380000D03*
D15*
X104130000Y-92580000D03*
X104130000Y-74800000D03*
D14*
X104130000Y-74000000D03*
D15*
X101590000Y-74800000D03*
D14*
X101590000Y-74000000D03*
D18*
X99050000Y-74800000D03*
D12*
X99050000Y-74000000D03*
D15*
X96510000Y-74800000D03*
D14*
X96510000Y-74000000D03*
D15*
X93970000Y-74800000D03*
D14*
X93970000Y-74000000D03*
D15*
X91430000Y-74800000D03*
D14*
X91430000Y-74000000D03*
D15*
X88890000Y-74800000D03*
D14*
X88890000Y-74000000D03*
D18*
X86350000Y-74800000D03*
D12*
X86350000Y-74000000D03*
D15*
X83810000Y-74800000D03*
D14*
X83810000Y-74000000D03*
D15*
X81270000Y-74800000D03*
D14*
X81270000Y-74000000D03*
D15*
X78730000Y-74800000D03*
D14*
X78730000Y-74000000D03*
D15*
X76190000Y-74800000D03*
D14*
X76190000Y-74000000D03*
D18*
X73650000Y-74800000D03*
D12*
X73650000Y-74000000D03*
D15*
X71110000Y-74800000D03*
D14*
X71110000Y-74000000D03*
D15*
X68570000Y-74800000D03*
D14*
X68570000Y-74000000D03*
D15*
X66030000Y-74800000D03*
D14*
X66030000Y-74000000D03*
D15*
X63490000Y-74800000D03*
D14*
X63490000Y-74000000D03*
D18*
X60950000Y-74800000D03*
D12*
X60950000Y-74000000D03*
D15*
X58410000Y-74800000D03*
D14*
X58410000Y-74000000D03*
D15*
X55870000Y-74800000D03*
D14*
X55870000Y-74000000D03*
D19*
X93500000Y-66500000D03*
X95325000Y-66500000D03*
D20*
X93600000Y-63000000D03*
X95500000Y-63000000D03*
D21*
X88990000Y-54000000D03*
D22*
X86450000Y-54000000D03*
X83910000Y-54000000D03*
X81370000Y-54000000D03*
X78830000Y-54000000D03*
X76290000Y-54000000D03*
X73750000Y-54000000D03*
X71210000Y-54000000D03*
D23*
X52500000Y-54500000D03*
X60700000Y-54500000D03*
D24*
X54600000Y-54500000D03*
D25*
X56600000Y-54500000D03*
X58600000Y-54500000D03*
D26*
X94020000Y-118250000D03*
X101980000Y-118250000D03*
X94020000Y-122750000D03*
X101980000Y-122750000D03*
X76020000Y-133250000D03*
X83980000Y-133250000D03*
X76020000Y-137750000D03*
X83980000Y-137750000D03*
D20*
X93550000Y-52500000D03*
X95450000Y-52500000D03*
D19*
X93675000Y-70500000D03*
X95325000Y-70500000D03*
D20*
X93600000Y-56000000D03*
X95500000Y-56000000D03*
X93600000Y-59500000D03*
X95500000Y-59500000D03*
D22*
X103500000Y-56500000D03*
X103500000Y-63500000D03*
D27*
X107200000Y-57400000D03*
X99800000Y-55400000D03*
D28*
X99800000Y-64800000D03*
D26*
X76020000Y-103250000D03*
X83980000Y-103250000D03*
X76020000Y-107750000D03*
X83980000Y-107750000D03*
D29*
X56500000Y-61050000D03*
D30*
X58500000Y-61050000D03*
D31*
X72500000Y-118000000D03*
D32*
X72500000Y-123000000D03*
X72500000Y-120500000D03*
D33*
X80000000Y-114900000D03*
X80000000Y-126100000D03*
D32*
X87000000Y-123000000D03*
X87000000Y-118000000D03*
D34*
X88275000Y-138225000D03*
X88275000Y-139325000D03*
X88275000Y-140425000D03*
X88275000Y-141525000D03*
X88275000Y-142625000D03*
X88275000Y-143725000D03*
X88275000Y-144825000D03*
X88275000Y-145925000D03*
X88275000Y-146875000D03*
D35*
X98775000Y-147825000D03*
D36*
X92575000Y-147825000D03*
D37*
X102925000Y-147825000D03*
D36*
X88275000Y-136675000D03*
D38*
X103375000Y-134325000D03*
D26*
X58020000Y-118250000D03*
X65980000Y-118250000D03*
X58020000Y-122750000D03*
X65980000Y-122750000D03*
M02*
