G04 #@! TF.GenerationSoftware,KiCad,Pcbnew,10.0.5*
G04 #@! TF.CreationDate,2026-08-26T03:10:50+01:00*
G04 #@! TF.ProjectId,pico-ipod,7069636f-2d69-4706-9f64-2e6b69636164,rev?*
G04 #@! TF.SameCoordinates,Original*
G04 #@! TF.FileFunction,Legend,Top*
G04 #@! TF.FilePolarity,Positive*
%FSLAX46Y46*%
G04 Gerber Fmt 4.6, Leading zero omitted, Abs format (unit mm)*
G04 Created by KiCad (PCBNEW 10.0.5) date 2026-08-26 03:10:50*
%MOMM*%
%LPD*%
G01*
G04 APERTURE LIST*
%ADD10C,0.150000*%
%ADD11C,0.120000*%
G04 APERTURE END LIST*
D10*
X104934104Y-71653339D02*
X104934104Y-71177149D01*
X105219819Y-71748577D02*
X104219819Y-71415244D01*
X104219819Y-71415244D02*
X105219819Y-71081911D01*
X105219819Y-70224768D02*
X105219819Y-70796196D01*
X105219819Y-70510482D02*
X104219819Y-70510482D01*
X104219819Y-70510482D02*
X104362676Y-70605720D01*
X104362676Y-70605720D02*
X104457914Y-70700958D01*
X104457914Y-70700958D02*
X104505533Y-70796196D01*
X94245833Y-65304819D02*
X93912500Y-64828628D01*
X93674405Y-65304819D02*
X93674405Y-64304819D01*
X93674405Y-64304819D02*
X94055357Y-64304819D01*
X94055357Y-64304819D02*
X94150595Y-64352438D01*
X94150595Y-64352438D02*
X94198214Y-64400057D01*
X94198214Y-64400057D02*
X94245833Y-64495295D01*
X94245833Y-64495295D02*
X94245833Y-64638152D01*
X94245833Y-64638152D02*
X94198214Y-64733390D01*
X94198214Y-64733390D02*
X94150595Y-64781009D01*
X94150595Y-64781009D02*
X94055357Y-64828628D01*
X94055357Y-64828628D02*
X93674405Y-64828628D01*
X95198214Y-65304819D02*
X94626786Y-65304819D01*
X94912500Y-65304819D02*
X94912500Y-64304819D01*
X94912500Y-64304819D02*
X94817262Y-64447676D01*
X94817262Y-64447676D02*
X94722024Y-64542914D01*
X94722024Y-64542914D02*
X94626786Y-64590533D01*
X94383333Y-61679580D02*
X94335714Y-61727200D01*
X94335714Y-61727200D02*
X94192857Y-61774819D01*
X94192857Y-61774819D02*
X94097619Y-61774819D01*
X94097619Y-61774819D02*
X93954762Y-61727200D01*
X93954762Y-61727200D02*
X93859524Y-61631961D01*
X93859524Y-61631961D02*
X93811905Y-61536723D01*
X93811905Y-61536723D02*
X93764286Y-61346247D01*
X93764286Y-61346247D02*
X93764286Y-61203390D01*
X93764286Y-61203390D02*
X93811905Y-61012914D01*
X93811905Y-61012914D02*
X93859524Y-60917676D01*
X93859524Y-60917676D02*
X93954762Y-60822438D01*
X93954762Y-60822438D02*
X94097619Y-60774819D01*
X94097619Y-60774819D02*
X94192857Y-60774819D01*
X94192857Y-60774819D02*
X94335714Y-60822438D01*
X94335714Y-60822438D02*
X94383333Y-60870057D01*
X95240476Y-61108152D02*
X95240476Y-61774819D01*
X95002381Y-60727200D02*
X94764286Y-61441485D01*
X94764286Y-61441485D02*
X95383333Y-61441485D01*
X90824819Y-54333333D02*
X91539104Y-54333333D01*
X91539104Y-54333333D02*
X91681961Y-54380952D01*
X91681961Y-54380952D02*
X91777200Y-54476190D01*
X91777200Y-54476190D02*
X91824819Y-54619047D01*
X91824819Y-54619047D02*
X91824819Y-54714285D01*
X90920057Y-53904761D02*
X90872438Y-53857142D01*
X90872438Y-53857142D02*
X90824819Y-53761904D01*
X90824819Y-53761904D02*
X90824819Y-53523809D01*
X90824819Y-53523809D02*
X90872438Y-53428571D01*
X90872438Y-53428571D02*
X90920057Y-53380952D01*
X90920057Y-53380952D02*
X91015295Y-53333333D01*
X91015295Y-53333333D02*
X91110533Y-53333333D01*
X91110533Y-53333333D02*
X91253390Y-53380952D01*
X91253390Y-53380952D02*
X91824819Y-53952380D01*
X91824819Y-53952380D02*
X91824819Y-53333333D01*
X57256667Y-51917200D02*
X57399524Y-51964819D01*
X57399524Y-51964819D02*
X57637619Y-51964819D01*
X57637619Y-51964819D02*
X57732857Y-51917200D01*
X57732857Y-51917200D02*
X57780476Y-51869580D01*
X57780476Y-51869580D02*
X57828095Y-51774342D01*
X57828095Y-51774342D02*
X57828095Y-51679104D01*
X57828095Y-51679104D02*
X57780476Y-51583866D01*
X57780476Y-51583866D02*
X57732857Y-51536247D01*
X57732857Y-51536247D02*
X57637619Y-51488628D01*
X57637619Y-51488628D02*
X57447143Y-51441009D01*
X57447143Y-51441009D02*
X57351905Y-51393390D01*
X57351905Y-51393390D02*
X57304286Y-51345771D01*
X57304286Y-51345771D02*
X57256667Y-51250533D01*
X57256667Y-51250533D02*
X57256667Y-51155295D01*
X57256667Y-51155295D02*
X57304286Y-51060057D01*
X57304286Y-51060057D02*
X57351905Y-51012438D01*
X57351905Y-51012438D02*
X57447143Y-50964819D01*
X57447143Y-50964819D02*
X57685238Y-50964819D01*
X57685238Y-50964819D02*
X57828095Y-51012438D01*
X58161429Y-50964819D02*
X58399524Y-51964819D01*
X58399524Y-51964819D02*
X58590000Y-51250533D01*
X58590000Y-51250533D02*
X58780476Y-51964819D01*
X58780476Y-51964819D02*
X59018572Y-50964819D01*
X59351905Y-51060057D02*
X59399524Y-51012438D01*
X59399524Y-51012438D02*
X59494762Y-50964819D01*
X59494762Y-50964819D02*
X59732857Y-50964819D01*
X59732857Y-50964819D02*
X59828095Y-51012438D01*
X59828095Y-51012438D02*
X59875714Y-51060057D01*
X59875714Y-51060057D02*
X59923333Y-51155295D01*
X59923333Y-51155295D02*
X59923333Y-51250533D01*
X59923333Y-51250533D02*
X59875714Y-51393390D01*
X59875714Y-51393390D02*
X59304286Y-51964819D01*
X59304286Y-51964819D02*
X59923333Y-51964819D01*
X96666667Y-116857200D02*
X96809524Y-116904819D01*
X96809524Y-116904819D02*
X97047619Y-116904819D01*
X97047619Y-116904819D02*
X97142857Y-116857200D01*
X97142857Y-116857200D02*
X97190476Y-116809580D01*
X97190476Y-116809580D02*
X97238095Y-116714342D01*
X97238095Y-116714342D02*
X97238095Y-116619104D01*
X97238095Y-116619104D02*
X97190476Y-116523866D01*
X97190476Y-116523866D02*
X97142857Y-116476247D01*
X97142857Y-116476247D02*
X97047619Y-116428628D01*
X97047619Y-116428628D02*
X96857143Y-116381009D01*
X96857143Y-116381009D02*
X96761905Y-116333390D01*
X96761905Y-116333390D02*
X96714286Y-116285771D01*
X96714286Y-116285771D02*
X96666667Y-116190533D01*
X96666667Y-116190533D02*
X96666667Y-116095295D01*
X96666667Y-116095295D02*
X96714286Y-116000057D01*
X96714286Y-116000057D02*
X96761905Y-115952438D01*
X96761905Y-115952438D02*
X96857143Y-115904819D01*
X96857143Y-115904819D02*
X97095238Y-115904819D01*
X97095238Y-115904819D02*
X97238095Y-115952438D01*
X97571429Y-115904819D02*
X97809524Y-116904819D01*
X97809524Y-116904819D02*
X98000000Y-116190533D01*
X98000000Y-116190533D02*
X98190476Y-116904819D01*
X98190476Y-116904819D02*
X98428572Y-115904819D01*
X99238095Y-115904819D02*
X99047619Y-115904819D01*
X99047619Y-115904819D02*
X98952381Y-115952438D01*
X98952381Y-115952438D02*
X98904762Y-116000057D01*
X98904762Y-116000057D02*
X98809524Y-116142914D01*
X98809524Y-116142914D02*
X98761905Y-116333390D01*
X98761905Y-116333390D02*
X98761905Y-116714342D01*
X98761905Y-116714342D02*
X98809524Y-116809580D01*
X98809524Y-116809580D02*
X98857143Y-116857200D01*
X98857143Y-116857200D02*
X98952381Y-116904819D01*
X98952381Y-116904819D02*
X99142857Y-116904819D01*
X99142857Y-116904819D02*
X99238095Y-116857200D01*
X99238095Y-116857200D02*
X99285714Y-116809580D01*
X99285714Y-116809580D02*
X99333333Y-116714342D01*
X99333333Y-116714342D02*
X99333333Y-116476247D01*
X99333333Y-116476247D02*
X99285714Y-116381009D01*
X99285714Y-116381009D02*
X99238095Y-116333390D01*
X99238095Y-116333390D02*
X99142857Y-116285771D01*
X99142857Y-116285771D02*
X98952381Y-116285771D01*
X98952381Y-116285771D02*
X98857143Y-116333390D01*
X98857143Y-116333390D02*
X98809524Y-116381009D01*
X98809524Y-116381009D02*
X98761905Y-116476247D01*
X78666667Y-131857200D02*
X78809524Y-131904819D01*
X78809524Y-131904819D02*
X79047619Y-131904819D01*
X79047619Y-131904819D02*
X79142857Y-131857200D01*
X79142857Y-131857200D02*
X79190476Y-131809580D01*
X79190476Y-131809580D02*
X79238095Y-131714342D01*
X79238095Y-131714342D02*
X79238095Y-131619104D01*
X79238095Y-131619104D02*
X79190476Y-131523866D01*
X79190476Y-131523866D02*
X79142857Y-131476247D01*
X79142857Y-131476247D02*
X79047619Y-131428628D01*
X79047619Y-131428628D02*
X78857143Y-131381009D01*
X78857143Y-131381009D02*
X78761905Y-131333390D01*
X78761905Y-131333390D02*
X78714286Y-131285771D01*
X78714286Y-131285771D02*
X78666667Y-131190533D01*
X78666667Y-131190533D02*
X78666667Y-131095295D01*
X78666667Y-131095295D02*
X78714286Y-131000057D01*
X78714286Y-131000057D02*
X78761905Y-130952438D01*
X78761905Y-130952438D02*
X78857143Y-130904819D01*
X78857143Y-130904819D02*
X79095238Y-130904819D01*
X79095238Y-130904819D02*
X79238095Y-130952438D01*
X79571429Y-130904819D02*
X79809524Y-131904819D01*
X79809524Y-131904819D02*
X80000000Y-131190533D01*
X80000000Y-131190533D02*
X80190476Y-131904819D01*
X80190476Y-131904819D02*
X80428572Y-130904819D01*
X81238095Y-131238152D02*
X81238095Y-131904819D01*
X81000000Y-130857200D02*
X80761905Y-131571485D01*
X80761905Y-131571485D02*
X81380952Y-131571485D01*
X94333333Y-51179580D02*
X94285714Y-51227200D01*
X94285714Y-51227200D02*
X94142857Y-51274819D01*
X94142857Y-51274819D02*
X94047619Y-51274819D01*
X94047619Y-51274819D02*
X93904762Y-51227200D01*
X93904762Y-51227200D02*
X93809524Y-51131961D01*
X93809524Y-51131961D02*
X93761905Y-51036723D01*
X93761905Y-51036723D02*
X93714286Y-50846247D01*
X93714286Y-50846247D02*
X93714286Y-50703390D01*
X93714286Y-50703390D02*
X93761905Y-50512914D01*
X93761905Y-50512914D02*
X93809524Y-50417676D01*
X93809524Y-50417676D02*
X93904762Y-50322438D01*
X93904762Y-50322438D02*
X94047619Y-50274819D01*
X94047619Y-50274819D02*
X94142857Y-50274819D01*
X94142857Y-50274819D02*
X94285714Y-50322438D01*
X94285714Y-50322438D02*
X94333333Y-50370057D01*
X95285714Y-51274819D02*
X94714286Y-51274819D01*
X95000000Y-51274819D02*
X95000000Y-50274819D01*
X95000000Y-50274819D02*
X94904762Y-50417676D01*
X94904762Y-50417676D02*
X94809524Y-50512914D01*
X94809524Y-50512914D02*
X94714286Y-50560533D01*
X94420833Y-69304819D02*
X94087500Y-68828628D01*
X93849405Y-69304819D02*
X93849405Y-68304819D01*
X93849405Y-68304819D02*
X94230357Y-68304819D01*
X94230357Y-68304819D02*
X94325595Y-68352438D01*
X94325595Y-68352438D02*
X94373214Y-68400057D01*
X94373214Y-68400057D02*
X94420833Y-68495295D01*
X94420833Y-68495295D02*
X94420833Y-68638152D01*
X94420833Y-68638152D02*
X94373214Y-68733390D01*
X94373214Y-68733390D02*
X94325595Y-68781009D01*
X94325595Y-68781009D02*
X94230357Y-68828628D01*
X94230357Y-68828628D02*
X93849405Y-68828628D01*
X94801786Y-68400057D02*
X94849405Y-68352438D01*
X94849405Y-68352438D02*
X94944643Y-68304819D01*
X94944643Y-68304819D02*
X95182738Y-68304819D01*
X95182738Y-68304819D02*
X95277976Y-68352438D01*
X95277976Y-68352438D02*
X95325595Y-68400057D01*
X95325595Y-68400057D02*
X95373214Y-68495295D01*
X95373214Y-68495295D02*
X95373214Y-68590533D01*
X95373214Y-68590533D02*
X95325595Y-68733390D01*
X95325595Y-68733390D02*
X94754167Y-69304819D01*
X94754167Y-69304819D02*
X95373214Y-69304819D01*
X94383333Y-54679580D02*
X94335714Y-54727200D01*
X94335714Y-54727200D02*
X94192857Y-54774819D01*
X94192857Y-54774819D02*
X94097619Y-54774819D01*
X94097619Y-54774819D02*
X93954762Y-54727200D01*
X93954762Y-54727200D02*
X93859524Y-54631961D01*
X93859524Y-54631961D02*
X93811905Y-54536723D01*
X93811905Y-54536723D02*
X93764286Y-54346247D01*
X93764286Y-54346247D02*
X93764286Y-54203390D01*
X93764286Y-54203390D02*
X93811905Y-54012914D01*
X93811905Y-54012914D02*
X93859524Y-53917676D01*
X93859524Y-53917676D02*
X93954762Y-53822438D01*
X93954762Y-53822438D02*
X94097619Y-53774819D01*
X94097619Y-53774819D02*
X94192857Y-53774819D01*
X94192857Y-53774819D02*
X94335714Y-53822438D01*
X94335714Y-53822438D02*
X94383333Y-53870057D01*
X94764286Y-53870057D02*
X94811905Y-53822438D01*
X94811905Y-53822438D02*
X94907143Y-53774819D01*
X94907143Y-53774819D02*
X95145238Y-53774819D01*
X95145238Y-53774819D02*
X95240476Y-53822438D01*
X95240476Y-53822438D02*
X95288095Y-53870057D01*
X95288095Y-53870057D02*
X95335714Y-53965295D01*
X95335714Y-53965295D02*
X95335714Y-54060533D01*
X95335714Y-54060533D02*
X95288095Y-54203390D01*
X95288095Y-54203390D02*
X94716667Y-54774819D01*
X94716667Y-54774819D02*
X95335714Y-54774819D01*
X94383333Y-58179580D02*
X94335714Y-58227200D01*
X94335714Y-58227200D02*
X94192857Y-58274819D01*
X94192857Y-58274819D02*
X94097619Y-58274819D01*
X94097619Y-58274819D02*
X93954762Y-58227200D01*
X93954762Y-58227200D02*
X93859524Y-58131961D01*
X93859524Y-58131961D02*
X93811905Y-58036723D01*
X93811905Y-58036723D02*
X93764286Y-57846247D01*
X93764286Y-57846247D02*
X93764286Y-57703390D01*
X93764286Y-57703390D02*
X93811905Y-57512914D01*
X93811905Y-57512914D02*
X93859524Y-57417676D01*
X93859524Y-57417676D02*
X93954762Y-57322438D01*
X93954762Y-57322438D02*
X94097619Y-57274819D01*
X94097619Y-57274819D02*
X94192857Y-57274819D01*
X94192857Y-57274819D02*
X94335714Y-57322438D01*
X94335714Y-57322438D02*
X94383333Y-57370057D01*
X94716667Y-57274819D02*
X95335714Y-57274819D01*
X95335714Y-57274819D02*
X95002381Y-57655771D01*
X95002381Y-57655771D02*
X95145238Y-57655771D01*
X95145238Y-57655771D02*
X95240476Y-57703390D01*
X95240476Y-57703390D02*
X95288095Y-57751009D01*
X95288095Y-57751009D02*
X95335714Y-57846247D01*
X95335714Y-57846247D02*
X95335714Y-58084342D01*
X95335714Y-58084342D02*
X95288095Y-58179580D01*
X95288095Y-58179580D02*
X95240476Y-58227200D01*
X95240476Y-58227200D02*
X95145238Y-58274819D01*
X95145238Y-58274819D02*
X94859524Y-58274819D01*
X94859524Y-58274819D02*
X94764286Y-58227200D01*
X94764286Y-58227200D02*
X94716667Y-58179580D01*
X103166666Y-48554819D02*
X103166666Y-49269104D01*
X103166666Y-49269104D02*
X103119047Y-49411961D01*
X103119047Y-49411961D02*
X103023809Y-49507200D01*
X103023809Y-49507200D02*
X102880952Y-49554819D01*
X102880952Y-49554819D02*
X102785714Y-49554819D01*
X103547619Y-48554819D02*
X104166666Y-48554819D01*
X104166666Y-48554819D02*
X103833333Y-48935771D01*
X103833333Y-48935771D02*
X103976190Y-48935771D01*
X103976190Y-48935771D02*
X104071428Y-48983390D01*
X104071428Y-48983390D02*
X104119047Y-49031009D01*
X104119047Y-49031009D02*
X104166666Y-49126247D01*
X104166666Y-49126247D02*
X104166666Y-49364342D01*
X104166666Y-49364342D02*
X104119047Y-49459580D01*
X104119047Y-49459580D02*
X104071428Y-49507200D01*
X104071428Y-49507200D02*
X103976190Y-49554819D01*
X103976190Y-49554819D02*
X103690476Y-49554819D01*
X103690476Y-49554819D02*
X103595238Y-49507200D01*
X103595238Y-49507200D02*
X103547619Y-49459580D01*
X78666667Y-101857200D02*
X78809524Y-101904819D01*
X78809524Y-101904819D02*
X79047619Y-101904819D01*
X79047619Y-101904819D02*
X79142857Y-101857200D01*
X79142857Y-101857200D02*
X79190476Y-101809580D01*
X79190476Y-101809580D02*
X79238095Y-101714342D01*
X79238095Y-101714342D02*
X79238095Y-101619104D01*
X79238095Y-101619104D02*
X79190476Y-101523866D01*
X79190476Y-101523866D02*
X79142857Y-101476247D01*
X79142857Y-101476247D02*
X79047619Y-101428628D01*
X79047619Y-101428628D02*
X78857143Y-101381009D01*
X78857143Y-101381009D02*
X78761905Y-101333390D01*
X78761905Y-101333390D02*
X78714286Y-101285771D01*
X78714286Y-101285771D02*
X78666667Y-101190533D01*
X78666667Y-101190533D02*
X78666667Y-101095295D01*
X78666667Y-101095295D02*
X78714286Y-101000057D01*
X78714286Y-101000057D02*
X78761905Y-100952438D01*
X78761905Y-100952438D02*
X78857143Y-100904819D01*
X78857143Y-100904819D02*
X79095238Y-100904819D01*
X79095238Y-100904819D02*
X79238095Y-100952438D01*
X79571429Y-100904819D02*
X79809524Y-101904819D01*
X79809524Y-101904819D02*
X80000000Y-101190533D01*
X80000000Y-101190533D02*
X80190476Y-101904819D01*
X80190476Y-101904819D02*
X80428572Y-100904819D01*
X80714286Y-100904819D02*
X81333333Y-100904819D01*
X81333333Y-100904819D02*
X81000000Y-101285771D01*
X81000000Y-101285771D02*
X81142857Y-101285771D01*
X81142857Y-101285771D02*
X81238095Y-101333390D01*
X81238095Y-101333390D02*
X81285714Y-101381009D01*
X81285714Y-101381009D02*
X81333333Y-101476247D01*
X81333333Y-101476247D02*
X81333333Y-101714342D01*
X81333333Y-101714342D02*
X81285714Y-101809580D01*
X81285714Y-101809580D02*
X81238095Y-101857200D01*
X81238095Y-101857200D02*
X81142857Y-101904819D01*
X81142857Y-101904819D02*
X80857143Y-101904819D01*
X80857143Y-101904819D02*
X80761905Y-101857200D01*
X80761905Y-101857200D02*
X80714286Y-101809580D01*
X57166666Y-57954819D02*
X57166666Y-58669104D01*
X57166666Y-58669104D02*
X57119047Y-58811961D01*
X57119047Y-58811961D02*
X57023809Y-58907200D01*
X57023809Y-58907200D02*
X56880952Y-58954819D01*
X56880952Y-58954819D02*
X56785714Y-58954819D01*
X58071428Y-58288152D02*
X58071428Y-58954819D01*
X57833333Y-57907200D02*
X57595238Y-58621485D01*
X57595238Y-58621485D02*
X58214285Y-58621485D01*
X73966667Y-113707200D02*
X74109524Y-113754819D01*
X74109524Y-113754819D02*
X74347619Y-113754819D01*
X74347619Y-113754819D02*
X74442857Y-113707200D01*
X74442857Y-113707200D02*
X74490476Y-113659580D01*
X74490476Y-113659580D02*
X74538095Y-113564342D01*
X74538095Y-113564342D02*
X74538095Y-113469104D01*
X74538095Y-113469104D02*
X74490476Y-113373866D01*
X74490476Y-113373866D02*
X74442857Y-113326247D01*
X74442857Y-113326247D02*
X74347619Y-113278628D01*
X74347619Y-113278628D02*
X74157143Y-113231009D01*
X74157143Y-113231009D02*
X74061905Y-113183390D01*
X74061905Y-113183390D02*
X74014286Y-113135771D01*
X74014286Y-113135771D02*
X73966667Y-113040533D01*
X73966667Y-113040533D02*
X73966667Y-112945295D01*
X73966667Y-112945295D02*
X74014286Y-112850057D01*
X74014286Y-112850057D02*
X74061905Y-112802438D01*
X74061905Y-112802438D02*
X74157143Y-112754819D01*
X74157143Y-112754819D02*
X74395238Y-112754819D01*
X74395238Y-112754819D02*
X74538095Y-112802438D01*
X74871429Y-112754819D02*
X75109524Y-113754819D01*
X75109524Y-113754819D02*
X75300000Y-113040533D01*
X75300000Y-113040533D02*
X75490476Y-113754819D01*
X75490476Y-113754819D02*
X75728572Y-112754819D01*
X76633333Y-113754819D02*
X76061905Y-113754819D01*
X76347619Y-113754819D02*
X76347619Y-112754819D01*
X76347619Y-112754819D02*
X76252381Y-112897676D01*
X76252381Y-112897676D02*
X76157143Y-112992914D01*
X76157143Y-112992914D02*
X76061905Y-113040533D01*
X85929819Y-141408333D02*
X86644104Y-141408333D01*
X86644104Y-141408333D02*
X86786961Y-141455952D01*
X86786961Y-141455952D02*
X86882200Y-141551190D01*
X86882200Y-141551190D02*
X86929819Y-141694047D01*
X86929819Y-141694047D02*
X86929819Y-141789285D01*
X86929819Y-140408333D02*
X86929819Y-140979761D01*
X86929819Y-140694047D02*
X85929819Y-140694047D01*
X85929819Y-140694047D02*
X86072676Y-140789285D01*
X86072676Y-140789285D02*
X86167914Y-140884523D01*
X86167914Y-140884523D02*
X86215533Y-140979761D01*
X60666667Y-116857200D02*
X60809524Y-116904819D01*
X60809524Y-116904819D02*
X61047619Y-116904819D01*
X61047619Y-116904819D02*
X61142857Y-116857200D01*
X61142857Y-116857200D02*
X61190476Y-116809580D01*
X61190476Y-116809580D02*
X61238095Y-116714342D01*
X61238095Y-116714342D02*
X61238095Y-116619104D01*
X61238095Y-116619104D02*
X61190476Y-116523866D01*
X61190476Y-116523866D02*
X61142857Y-116476247D01*
X61142857Y-116476247D02*
X61047619Y-116428628D01*
X61047619Y-116428628D02*
X60857143Y-116381009D01*
X60857143Y-116381009D02*
X60761905Y-116333390D01*
X60761905Y-116333390D02*
X60714286Y-116285771D01*
X60714286Y-116285771D02*
X60666667Y-116190533D01*
X60666667Y-116190533D02*
X60666667Y-116095295D01*
X60666667Y-116095295D02*
X60714286Y-116000057D01*
X60714286Y-116000057D02*
X60761905Y-115952438D01*
X60761905Y-115952438D02*
X60857143Y-115904819D01*
X60857143Y-115904819D02*
X61095238Y-115904819D01*
X61095238Y-115904819D02*
X61238095Y-115952438D01*
X61571429Y-115904819D02*
X61809524Y-116904819D01*
X61809524Y-116904819D02*
X62000000Y-116190533D01*
X62000000Y-116190533D02*
X62190476Y-116904819D01*
X62190476Y-116904819D02*
X62428572Y-115904819D01*
X63285714Y-115904819D02*
X62809524Y-115904819D01*
X62809524Y-115904819D02*
X62761905Y-116381009D01*
X62761905Y-116381009D02*
X62809524Y-116333390D01*
X62809524Y-116333390D02*
X62904762Y-116285771D01*
X62904762Y-116285771D02*
X63142857Y-116285771D01*
X63142857Y-116285771D02*
X63238095Y-116333390D01*
X63238095Y-116333390D02*
X63285714Y-116381009D01*
X63285714Y-116381009D02*
X63333333Y-116476247D01*
X63333333Y-116476247D02*
X63333333Y-116714342D01*
X63333333Y-116714342D02*
X63285714Y-116809580D01*
X63285714Y-116809580D02*
X63238095Y-116857200D01*
X63238095Y-116857200D02*
X63142857Y-116904819D01*
X63142857Y-116904819D02*
X62904762Y-116904819D01*
X62904762Y-116904819D02*
X62809524Y-116857200D01*
X62809524Y-116857200D02*
X62761905Y-116809580D01*
D11*
X54390000Y-73690000D02*
X54390000Y-76180000D01*
X54390000Y-76180000D02*
X55303520Y-76180000D01*
X54390000Y-77527939D02*
X54390000Y-76180000D01*
X54390000Y-79455000D02*
X54390000Y-78452061D01*
X54390000Y-79790000D02*
X55306000Y-79790000D01*
X54390000Y-87590000D02*
X55306000Y-87590000D01*
X54390000Y-87925000D02*
X54390000Y-79455000D01*
X54390000Y-88927939D02*
X54390000Y-87925000D01*
X54390000Y-91200000D02*
X54390000Y-89852060D01*
X54390000Y-91200000D02*
X55303520Y-91200000D01*
X54390000Y-93690000D02*
X54390000Y-91200000D01*
X54810000Y-94269676D02*
X54810000Y-94780000D01*
X54810063Y-73420000D02*
X54453000Y-73420000D01*
X54810063Y-93960000D02*
X54453000Y-93960000D01*
X56930000Y-73080000D02*
X57350000Y-73080000D01*
X56930000Y-73420000D02*
X57350000Y-73420000D01*
X56930000Y-93960000D02*
X57350000Y-93960000D01*
X56930000Y-94300000D02*
X56930000Y-94780000D01*
X56930000Y-94300000D02*
X57350000Y-94300000D01*
X57694000Y-79790000D02*
X58910000Y-79790000D01*
X57694000Y-87590000D02*
X58910000Y-87590000D01*
X57696480Y-76180000D02*
X102303520Y-76180000D01*
X57696480Y-91200000D02*
X102303520Y-91200000D01*
X58910000Y-80086090D02*
X58910000Y-79790000D01*
X58910000Y-84936090D02*
X58910000Y-82443910D01*
X58910000Y-87590000D02*
X58910000Y-87293910D01*
X59470000Y-73080000D02*
X59890000Y-73080000D01*
X59470000Y-73420000D02*
X59890000Y-73420000D01*
X59470000Y-93960000D02*
X59890000Y-93960000D01*
X59470000Y-94300000D02*
X59890000Y-94300000D01*
X62010000Y-73080000D02*
X62430000Y-73080000D01*
X62010000Y-73420000D02*
X62430000Y-73420000D01*
X62010000Y-93960000D02*
X62430000Y-93960000D01*
X62010000Y-94300000D02*
X62430000Y-94300000D01*
X64550000Y-73080000D02*
X64970000Y-73080000D01*
X64550000Y-73420000D02*
X64970000Y-73420000D01*
X64550000Y-93960000D02*
X64970000Y-93960000D01*
X64550000Y-94300000D02*
X64970000Y-94300000D01*
X67090000Y-73080000D02*
X67510000Y-73080000D01*
X67090000Y-73420000D02*
X67510000Y-73420000D01*
X67090000Y-93960000D02*
X67510000Y-93960000D01*
X67090000Y-94300000D02*
X67510000Y-94300000D01*
X69630000Y-73080000D02*
X70050000Y-73080000D01*
X69630000Y-73420000D02*
X70050000Y-73420000D01*
X69630000Y-93960000D02*
X70050000Y-93960000D01*
X69630000Y-94300000D02*
X70050000Y-94300000D01*
X72170000Y-73080000D02*
X72590000Y-73080000D01*
X72170000Y-73420000D02*
X72590000Y-73420000D01*
X72170000Y-93960000D02*
X72590000Y-93960000D01*
X72170000Y-94300000D02*
X72590000Y-94300000D01*
X74710000Y-73080000D02*
X75130000Y-73080000D01*
X74710000Y-73420000D02*
X75130000Y-73420000D01*
X74710000Y-93960000D02*
X75130000Y-93960000D01*
X74710000Y-94300000D02*
X75130000Y-94300000D01*
X77250000Y-73080000D02*
X77670000Y-73080000D01*
X77250000Y-73420000D02*
X77670000Y-73420000D01*
X77250000Y-93960000D02*
X77670000Y-93960000D01*
X77250000Y-94300000D02*
X77670000Y-94300000D01*
X79790000Y-73080000D02*
X80210000Y-73080000D01*
X79790000Y-73420000D02*
X80210000Y-73420000D01*
X79790000Y-93960000D02*
X80210000Y-93960000D01*
X79790000Y-94300000D02*
X80210000Y-94300000D01*
X82330000Y-73080000D02*
X82750000Y-73080000D01*
X82330000Y-73420000D02*
X82750000Y-73420000D01*
X82330000Y-93960000D02*
X82750000Y-93960000D01*
X82330000Y-94300000D02*
X82750000Y-94300000D01*
X84870000Y-73080000D02*
X85290000Y-73080000D01*
X84870000Y-73420000D02*
X85290000Y-73420000D01*
X84870000Y-93960000D02*
X85290000Y-93960000D01*
X84870000Y-94300000D02*
X85290000Y-94300000D01*
X87410000Y-73080000D02*
X87830000Y-73080000D01*
X87410000Y-73420000D02*
X87830000Y-73420000D01*
X87410000Y-93960000D02*
X87830000Y-93960000D01*
X87410000Y-94300000D02*
X87830000Y-94300000D01*
X89950000Y-73080000D02*
X90370000Y-73080000D01*
X89950000Y-73420000D02*
X90370000Y-73420000D01*
X89950000Y-93960000D02*
X90370000Y-93960000D01*
X89950000Y-94300000D02*
X90370000Y-94300000D01*
X92490000Y-73080000D02*
X92910000Y-73080000D01*
X92490000Y-73420000D02*
X92910000Y-73420000D01*
X92490000Y-93960000D02*
X92910000Y-93960000D01*
X92490000Y-94300000D02*
X92910000Y-94300000D01*
X95030000Y-73080000D02*
X95450000Y-73080000D01*
X95030000Y-73420000D02*
X95450000Y-73420000D01*
X95030000Y-93960000D02*
X95450000Y-93960000D01*
X95030000Y-94300000D02*
X95450000Y-94300000D01*
X97570000Y-73080000D02*
X97990000Y-73080000D01*
X97570000Y-73420000D02*
X97990000Y-73420000D01*
X97570000Y-93960000D02*
X97990000Y-93960000D01*
X97570000Y-94300000D02*
X97990000Y-94300000D01*
X100110000Y-73080000D02*
X100530000Y-73080000D01*
X100110000Y-73420000D02*
X100530000Y-73420000D01*
X100110000Y-93960000D02*
X100530000Y-93960000D01*
X100110000Y-94300000D02*
X100530000Y-94300000D01*
X102650000Y-73080000D02*
X103070000Y-73080000D01*
X102650000Y-73420000D02*
X103070000Y-73420000D01*
X102650000Y-93960000D02*
X103070000Y-93960000D01*
X102650000Y-94300000D02*
X103070000Y-94300000D01*
X104696480Y-76180000D02*
X105610000Y-76180000D01*
X104696480Y-91200000D02*
X105610000Y-91200000D01*
X105189937Y-73420000D02*
X105547000Y-73420000D01*
X105189937Y-93960000D02*
X105547000Y-93960000D01*
X105610000Y-77527939D02*
X105610000Y-73690000D01*
X105610000Y-78452061D02*
X105610000Y-80090000D01*
X105610000Y-80090000D02*
X105610000Y-87290000D01*
X105610000Y-87290000D02*
X105610000Y-88927939D01*
X105610000Y-93690000D02*
X105610000Y-89852061D01*
X54390000Y-73690000D02*
G75*
G02*
X54810063Y-73110324I610000J0D01*
G01*
X54810000Y-94269676D02*
G75*
G02*
X54390000Y-93690000I190051J579692D01*
G01*
X105189937Y-73110324D02*
G75*
G02*
X105610069Y-73690000I-189837J-579676D01*
G01*
X105610000Y-93690000D02*
G75*
G02*
X105189937Y-94269676I-610002J1D01*
G01*
X94185436Y-65765000D02*
X94639564Y-65765000D01*
X94185436Y-67235000D02*
X94639564Y-67235000D01*
X94288748Y-62265000D02*
X94811252Y-62265000D01*
X94288748Y-63735000D02*
X94811252Y-63735000D01*
X69830000Y-52620000D02*
X69830000Y-55380000D01*
X87720000Y-52620000D02*
X69830000Y-52620000D01*
X87720000Y-52620000D02*
X87720000Y-55380000D01*
X87720000Y-55380000D02*
X69830000Y-55380000D01*
X88990000Y-52620000D02*
X90370000Y-52620000D01*
X90370000Y-52620000D02*
X90370000Y-54000000D01*
X52190000Y-52240000D02*
X61010000Y-52240000D01*
X52190000Y-52550000D02*
X52190000Y-52240000D01*
X52190000Y-56760000D02*
X52190000Y-56450000D01*
X54100000Y-51540000D02*
X54600000Y-52040000D01*
X54600000Y-52040000D02*
X55100000Y-51540000D01*
X55100000Y-51540000D02*
X54100000Y-51540000D01*
X61010000Y-52240000D02*
X61010000Y-52550000D01*
X61010000Y-56760000D02*
X52190000Y-56760000D01*
X61010000Y-56760000D02*
X61010000Y-56450000D01*
X94770000Y-117270000D02*
X101230000Y-117270000D01*
X94770000Y-117300000D02*
X94770000Y-117270000D01*
X94770000Y-119200000D02*
X94770000Y-121800000D01*
X94770000Y-123730000D02*
X94770000Y-123700000D01*
X94770000Y-123730000D02*
X101230000Y-123730000D01*
X101230000Y-117270000D02*
X101230000Y-117300000D01*
X101230000Y-119200000D02*
X101230000Y-121800000D01*
X101230000Y-123730000D02*
X101230000Y-123700000D01*
X76770000Y-132270000D02*
X83230000Y-132270000D01*
X76770000Y-132300000D02*
X76770000Y-132270000D01*
X76770000Y-134200000D02*
X76770000Y-136800000D01*
X76770000Y-138730000D02*
X76770000Y-138700000D01*
X76770000Y-138730000D02*
X83230000Y-138730000D01*
X83230000Y-132270000D02*
X83230000Y-132300000D01*
X83230000Y-134200000D02*
X83230000Y-136800000D01*
X83230000Y-138730000D02*
X83230000Y-138700000D01*
X94238748Y-51765000D02*
X94761252Y-51765000D01*
X94238748Y-53235000D02*
X94761252Y-53235000D01*
X94360436Y-69765000D02*
X94814564Y-69765000D01*
X94360436Y-71235000D02*
X94814564Y-71235000D01*
X94288748Y-55265000D02*
X94811252Y-55265000D01*
X94288748Y-56735000D02*
X94811252Y-56735000D01*
X94288748Y-58765000D02*
X94811252Y-58765000D01*
X94288748Y-60235000D02*
X94811252Y-60235000D01*
X100400000Y-52900000D02*
X100900000Y-52900000D01*
X100400000Y-54100000D02*
X98400000Y-54100000D01*
X100400000Y-54100000D02*
X100400000Y-52900000D01*
X100400000Y-56700000D02*
X98400000Y-56700000D01*
X100400000Y-63200000D02*
X100400000Y-56700000D01*
X100400000Y-67600000D02*
X100400000Y-66400000D01*
X100900000Y-50400000D02*
X106100000Y-50400000D01*
X100900000Y-52900000D02*
X100900000Y-50400000D01*
X106100000Y-50400000D02*
X106100000Y-52900000D01*
X106100000Y-52900000D02*
X106600000Y-52900000D01*
X106600000Y-52900000D02*
X106600000Y-56100000D01*
X106600000Y-58700000D02*
X106600000Y-67600000D01*
X106600000Y-67600000D02*
X100400000Y-67600000D01*
X76770000Y-102270000D02*
X83230000Y-102270000D01*
X76770000Y-102300000D02*
X76770000Y-102270000D01*
X76770000Y-104200000D02*
X76770000Y-106800000D01*
X76770000Y-108730000D02*
X76770000Y-108700000D01*
X76770000Y-108730000D02*
X83230000Y-108730000D01*
X83230000Y-102270000D02*
X83230000Y-102300000D01*
X83230000Y-104200000D02*
X83230000Y-106800000D01*
X83230000Y-108730000D02*
X83230000Y-108700000D01*
X54440000Y-59590000D02*
X54440000Y-67410000D01*
X54440000Y-61190000D02*
X55360000Y-61190000D01*
X54440000Y-67410000D02*
X60560000Y-67410000D01*
X55360000Y-59590000D02*
X54440000Y-59590000D01*
X55360000Y-61190000D02*
X55360000Y-59590000D01*
X55640000Y-61190000D02*
X55360000Y-61190000D01*
X55640000Y-61190000D02*
X55640000Y-59975000D01*
X55700000Y-65150000D02*
X55700000Y-67410000D01*
X56200000Y-65150000D02*
X56200000Y-67410000D01*
X57000000Y-63050000D02*
X58000000Y-63050000D01*
X57000000Y-67410000D02*
X57000000Y-63050000D01*
X58000000Y-63050000D02*
X58000000Y-67410000D01*
X59640000Y-59590000D02*
X59640000Y-61190000D01*
X59640000Y-61190000D02*
X59360000Y-61190000D01*
X60560000Y-59590000D02*
X59640000Y-59590000D01*
X60560000Y-61190000D02*
X59640000Y-61190000D01*
X60560000Y-67410000D02*
X60560000Y-59590000D01*
X55200000Y-63550000D02*
X56200000Y-63550000D01*
X56200000Y-65150000D01*
X55200000Y-65150000D01*
X55200000Y-63550000D01*
X58800000Y-63550000D02*
X59800000Y-63550000D01*
X59800000Y-65150000D01*
X58800000Y-65150000D01*
X58800000Y-63550000D01*
X72200000Y-116400000D02*
X72800000Y-116400000D01*
X72500000Y-116700000D02*
X72200000Y-116400000D01*
X72800000Y-116400000D02*
X72500000Y-116700000D01*
X73900000Y-114600000D02*
X73900000Y-126400000D01*
X78000000Y-114600000D02*
X73900000Y-114600000D01*
X78000000Y-126400000D02*
X73900000Y-126400000D01*
X79500000Y-120500000D02*
X80500000Y-120500000D01*
X80000000Y-120000000D02*
X80000000Y-121000000D01*
X82000000Y-114600000D02*
X86100000Y-114600000D01*
X86100000Y-114600000D02*
X86100000Y-117000000D01*
X86100000Y-119200000D02*
X86100000Y-121800000D01*
X86100000Y-124000000D02*
X86100000Y-126400000D01*
X86100000Y-126400000D02*
X82000000Y-126400000D01*
X83000000Y-120500000D02*
G75*
G02*
X77000000Y-120500000I-3000000J0D01*
G01*
X77000000Y-120500000D02*
G75*
G02*
X83000000Y-120500000I3000000J0D01*
G01*
X88115000Y-134005000D02*
X102125000Y-134005000D01*
X88115000Y-135925000D02*
X88115000Y-134005000D01*
X88115000Y-147525000D02*
X88115000Y-147975000D01*
X88115000Y-147975000D02*
X91725000Y-147975000D01*
X93425000Y-147975000D02*
X98125000Y-147975000D01*
X99425000Y-147975000D02*
X101225000Y-147975000D01*
X104035000Y-144875000D02*
X104035000Y-138505000D01*
X104035000Y-144875000D02*
X104185000Y-144875000D01*
X104185000Y-135485000D02*
X104185000Y-135225000D01*
X104385000Y-135685000D02*
X104185000Y-135485000D01*
X104385000Y-135685000D02*
X104385000Y-137995000D01*
X104385000Y-137995000D02*
X104035000Y-138505000D01*
X104385000Y-145085000D02*
X104185000Y-144875000D01*
X104385000Y-146945000D02*
X104185000Y-147145000D01*
X104385000Y-146945000D02*
X104385000Y-145085000D01*
X58770000Y-117270000D02*
X65230000Y-117270000D01*
X58770000Y-117300000D02*
X58770000Y-117270000D01*
X58770000Y-119200000D02*
X58770000Y-121800000D01*
X58770000Y-123730000D02*
X58770000Y-123700000D01*
X58770000Y-123730000D02*
X65230000Y-123730000D01*
X65230000Y-117270000D02*
X65230000Y-117300000D01*
X65230000Y-119200000D02*
X65230000Y-121800000D01*
X65230000Y-123730000D02*
X65230000Y-123700000D01*
M02*
