G04 #@! TF.GenerationSoftware,KiCad,Pcbnew,10.0.5*
G04 #@! TF.CreationDate,2026-08-26T03:10:51+01:00*
G04 #@! TF.ProjectId,pico-ipod,7069636f-2d69-4706-9f64-2e6b69636164,rev?*
G04 #@! TF.SameCoordinates,Original*
G04 #@! TF.FileFunction,Soldermask,Bot*
G04 #@! TF.FilePolarity,Negative*
%FSLAX46Y46*%
G04 Gerber Fmt 4.6, Leading zero omitted, Abs format (unit mm)*
G04 Created by KiCad (PCBNEW 10.0.5) date 2026-08-26 03:10:51*
%MOMM*%
%LPD*%
G01*
G04 APERTURE LIST*
G04 Aperture macros list*
%AMRoundRect*
0 Rectangle with rounded corners*
0 $1 Rounding radius*
0 $2 $3 $4 $5 $6 $7 $8 $9 X,Y pos of 4 corners*
0 Add a 4 corners polygon primitive as box body*
4,1,4,$2,$3,$4,$5,$6,$7,$8,$9,$2,$3,0*
0 Add four circle primitives for the rounded corners*
1,1,$1+$1,$2,$3*
1,1,$1+$1,$4,$5*
1,1,$1+$1,$6,$7*
1,1,$1+$1,$8,$9*
0 Add four rect primitives between the rounded corners*
20,1,$1+$1,$2,$3,$4,$5,0*
20,1,$1+$1,$4,$5,$6,$7,0*
20,1,$1+$1,$6,$7,$8,$9,0*
20,1,$1+$1,$8,$9,$2,$3,0*%
%AMFreePoly0*
4,1,37,0.603843,0.796157,0.639018,0.796157,0.711114,0.766294,0.766294,0.711114,0.796157,0.639018,0.796157,0.603843,0.800000,0.600000,0.800000,-0.600000,0.796157,-0.603843,0.796157,-0.639018,0.766294,-0.711114,0.711114,-0.766294,0.639018,-0.796157,0.603843,-0.796157,0.600000,-0.800000,0.000000,-0.800000,0.000000,-0.796148,-0.078414,-0.796148,-0.232228,-0.765552,-0.377117,-0.705537,
-0.507515,-0.618408,-0.618408,-0.507515,-0.705537,-0.377117,-0.765552,-0.232228,-0.796148,-0.078414,-0.796148,0.078414,-0.765552,0.232228,-0.705537,0.377117,-0.618408,0.507515,-0.507515,0.618408,-0.377117,0.705537,-0.232228,0.765552,-0.078414,0.796148,0.000000,0.796148,0.000000,0.800000,0.600000,0.800000,0.603843,0.796157,0.603843,0.796157,$1*%
%AMFreePoly1*
4,1,37,0.000000,0.796148,0.078414,0.796148,0.232228,0.765552,0.377117,0.705537,0.507515,0.618408,0.618408,0.507515,0.705537,0.377117,0.765552,0.232228,0.796148,0.078414,0.796148,-0.078414,0.765552,-0.232228,0.705537,-0.377117,0.618408,-0.507515,0.507515,-0.618408,0.377117,-0.705537,0.232228,-0.765552,0.078414,-0.796148,0.000000,-0.796148,0.000000,-0.800000,-0.600000,-0.800000,
-0.603843,-0.796157,-0.639018,-0.796157,-0.711114,-0.766294,-0.766294,-0.711114,-0.796157,-0.639018,-0.796157,-0.603843,-0.800000,-0.600000,-0.800000,0.600000,-0.796157,0.603843,-0.796157,0.639018,-0.766294,0.711114,-0.711114,0.766294,-0.639018,0.796157,-0.603843,0.796157,-0.600000,0.800000,0.000000,0.800000,0.000000,0.796148,0.000000,0.796148,$1*%
G04 Aperture macros list end*
%ADD10C,2.200000*%
%ADD11C,1.850000*%
%ADD12RoundRect,0.200000X0.600000X-0.600000X0.600000X0.600000X-0.600000X0.600000X-0.600000X-0.600000X0*%
%ADD13C,1.600000*%
%ADD14FreePoly0,90.000000*%
%ADD15FreePoly1,90.000000*%
%ADD16R,1.700000X1.700000*%
%ADD17C,1.700000*%
%ADD18O,2.200000X3.500000*%
%ADD19R,1.500000X2.500000*%
%ADD20O,1.500000X2.500000*%
%ADD21RoundRect,0.250000X-0.350000X-0.625000X0.350000X-0.625000X0.350000X0.625000X-0.350000X0.625000X0*%
%ADD22O,1.200000X1.750000*%
%ADD23R,2.000000X2.000000*%
%ADD24C,2.000000*%
%ADD25R,3.200000X2.000000*%
G04 APERTURE END LIST*
D10*
X56000000Y-86415000D03*
D11*
X59030000Y-86115000D03*
X59030000Y-81265000D03*
D10*
X56000000Y-80965000D03*
D12*
X55870000Y-92580000D03*
D13*
X58410000Y-92580000D03*
D14*
X60950000Y-92580000D03*
D13*
X63490000Y-92580000D03*
X66030000Y-92580000D03*
X68570000Y-92580000D03*
X71110000Y-92580000D03*
D14*
X73650000Y-92580000D03*
D13*
X76190000Y-92580000D03*
X78730000Y-92580000D03*
X81270000Y-92580000D03*
X83810000Y-92580000D03*
D14*
X86350000Y-92580000D03*
D13*
X88890000Y-92580000D03*
X91430000Y-92580000D03*
X93970000Y-92580000D03*
X96510000Y-92580000D03*
D14*
X99050000Y-92580000D03*
D13*
X101590000Y-92580000D03*
X104130000Y-92580000D03*
X104130000Y-74800000D03*
X101590000Y-74800000D03*
D15*
X99050000Y-74800000D03*
D13*
X96510000Y-74800000D03*
X93970000Y-74800000D03*
X91430000Y-74800000D03*
X88890000Y-74800000D03*
D15*
X86350000Y-74800000D03*
D13*
X83810000Y-74800000D03*
X81270000Y-74800000D03*
X78730000Y-74800000D03*
X76190000Y-74800000D03*
D15*
X73650000Y-74800000D03*
D13*
X71110000Y-74800000D03*
X68570000Y-74800000D03*
X66030000Y-74800000D03*
X63490000Y-74800000D03*
D15*
X60950000Y-74800000D03*
D13*
X58410000Y-74800000D03*
X55870000Y-74800000D03*
D16*
X88990000Y-54000000D03*
D17*
X86450000Y-54000000D03*
X83910000Y-54000000D03*
X81370000Y-54000000D03*
X78830000Y-54000000D03*
X76290000Y-54000000D03*
X73750000Y-54000000D03*
X71210000Y-54000000D03*
D18*
X52500000Y-54500000D03*
X60700000Y-54500000D03*
D19*
X54600000Y-54500000D03*
D20*
X56600000Y-54500000D03*
X58600000Y-54500000D03*
D17*
X103500000Y-56500000D03*
X103500000Y-63500000D03*
D21*
X56500000Y-61050000D03*
D22*
X58500000Y-61050000D03*
D23*
X72500000Y-118000000D03*
D24*
X72500000Y-123000000D03*
X72500000Y-120500000D03*
D25*
X80000000Y-114900000D03*
X80000000Y-126100000D03*
D24*
X87000000Y-123000000D03*
X87000000Y-118000000D03*
M02*
