M48
; DRILL file KiCad 10.0.5 date 2026-08-26T03:11:26
; FORMAT={-:-/ absolute / metric / decimal}
; #@! TF.CreationDate,2026-08-26T03:11:26+01:00
; #@! TF.GenerationSoftware,Kicad,Pcbnew,10.0.5
; #@! TF.FileFunction,Plated,1,2,PTH
FMAT,2
METRIC
; #@! TA.AperFunction,Plated,PTH,ViaDrill
T1C0.300
; #@! TA.AperFunction,Plated,PTH,ComponentDrill
T2C0.750
; #@! TA.AperFunction,Plated,PTH,ComponentDrill
T3C0.800
; #@! TA.AperFunction,Plated,PTH,ComponentDrill
T4C1.000
; #@! TA.AperFunction,Plated,PTH,ComponentDrill
T5C1.500
%
G90
G05
T1
X61.5Y-96.5
X75.5Y-99.5
X77.0Y-67.0
X86.53Y-87.0
X87.5Y-72.5
X87.5Y-100.125
X88.5Y-101.0
X89.515Y-68.5
X90.0Y-71.5
X90.375Y-138.0
X90.5Y-84.0
X91.0Y-99.5
X91.5Y-65.5
X91.5Y-76.55
X91.5Y-98.5
X91.93Y-87.0
X92.0Y-56.0
X92.192Y-134.692
X92.5Y-51.5
X92.625Y-64.1
X93.18Y-68.5
X94.125Y-90.079
X95.0Y-133.625
X96.5Y-56.0
X96.5Y-60.5
X96.5Y-66.5
X100.192Y-129.692
T2
X56.5Y-61.05
X58.5Y-61.05
T3
X54.6Y-54.5
X56.6Y-54.5
X58.6Y-54.5
T4
X55.87Y-74.8
X55.87Y-92.58
X58.41Y-74.8
X58.41Y-92.58
X60.95Y-74.8
X60.95Y-92.58
X63.49Y-74.8
X63.49Y-92.58
X66.03Y-74.8
X66.03Y-92.58
X68.57Y-74.8
X68.57Y-92.58
X71.11Y-74.8
X71.11Y-92.58
X71.21Y-54.0
X72.5Y-118.0
X72.5Y-120.5
X72.5Y-123.0
X73.65Y-74.8
X73.65Y-92.58
X73.75Y-54.0
X76.19Y-74.8
X76.19Y-92.58
X76.29Y-54.0
X78.73Y-74.8
X78.73Y-92.58
X78.83Y-54.0
X81.27Y-74.8
X81.27Y-92.58
X81.37Y-54.0
X83.81Y-74.8
X83.81Y-92.58
X83.91Y-54.0
X86.35Y-74.8
X86.35Y-92.58
X86.45Y-54.0
X87.0Y-118.0
X87.0Y-123.0
X88.89Y-74.8
X88.89Y-92.58
X88.99Y-54.0
X91.43Y-74.8
X91.43Y-92.58
X93.97Y-74.8
X93.97Y-92.58
X96.51Y-74.8
X96.51Y-92.58
X99.05Y-74.8
X99.05Y-92.58
X101.59Y-74.8
X101.59Y-92.58
X104.13Y-74.8
X104.13Y-92.58
T5
X52.5Y-54.5
X60.7Y-54.5
T5
G00X79.35Y-114.9
M15
G01X80.65Y-114.9
M16
G05
G00X79.35Y-126.1
M15
G01X80.65Y-126.1
M16
G05
M30
